<?xml version="1.0" encoding="UTF-8"?>
<svg version="1.1" xmlns="http://www.w3.org/2000/svg" width="200" height="200">
<path d="M0 0 C5.42638612 5.23220133 9.19319263 9.6801214 9.43139648 17.4309082 C9.46404681 28.49936801 6.63390373 36.25956237 0.3125 45.4375 C-3.95755292 51.81701335 -3.95755292 51.81701335 -5 64 C11.17 64 27.34 64 44 64 C44 90.4 44 116.8 44 144 C45.65 144.33 47.3 144.66 49 145 C51.3125 146.4375 51.3125 146.4375 53 149 C53.62892419 152.4474363 53.66312869 155.55618882 53 159 C50.80977082 161.82424288 49.16982793 163.41508603 46 165 C44.01182247 165.10251144 42.02016173 165.13951518 40.02935791 165.14717102 C38.75632813 165.15432632 37.48329834 165.16148163 36.17169189 165.16885376 C34.75280786 165.17169417 33.33392356 165.17440588 31.91503906 165.17700195 C30.42695964 165.18326559 28.93888179 165.1899123 27.45080566 165.19691467 C23.40106906 165.21433469 19.35134427 165.22487936 15.30157948 165.2331202 C12.7717881 165.23826871 10.24200039 165.24434454 7.71221161 165.25063133 C-0.20178989 165.26968703 -8.11578204 165.28391682 -16.02980208 165.2922433 C-25.16711325 165.30201527 -34.30418213 165.32833203 -43.44140792 165.36874419 C-50.50220755 165.39890158 -57.56293773 165.41371185 -64.62380052 165.41702431 C-68.8416329 165.41937543 -73.05920657 165.42834338 -77.27696991 165.45348549 C-81.2464132 165.47676451 -85.21542741 165.48100033 -89.18492126 165.47072411 C-90.64016904 165.47022857 -92.09543791 165.47655429 -93.55062103 165.49028015 C-95.54080977 165.50799876 -97.53118481 165.49850773 -99.52142334 165.48774719 C-100.63419521 165.49013555 -101.74696709 165.4925239 -102.89345932 165.49498463 C-106.78881921 164.87431248 -108.95434642 163.46980407 -112 161 C-113.69435514 157.18770094 -114.16289201 154.92305473 -113.4375 150.8125 C-111.7535023 147.5177219 -110.11175168 145.97330594 -107 144 C-106.01 144 -105.02 144 -104 144 C-104 117.6 -104 91.2 -104 64 C-87.83 64 -71.66 64 -55 64 C-56.11325756 52.89112398 -56.11325756 52.89112398 -60.875 44.875 C-68.30199615 34.53121991 -70.52135522 24.58454359 -69 12 C-66.54013534 4.78367137 -60.31278013 -0.18121875 -53.8125 -3.75 C-38.68210828 -9.40715974 -13.48933106 -10.04909898 0 0 Z M-59 7 C-63.21311484 12.05573781 -63.83757604 16.78476254 -63.65625 23.3125 C-62.16314409 31.7023332 -57.49644154 39.27746927 -52.796875 46.28515625 C-48.26015266 53.13955197 -49.15787779 62.25409561 -50.73458862 70.05731201 C-51.74152054 74.49486197 -52.92997108 78.88251397 -54.12109375 83.2734375 C-54.54632198 84.8929319 -54.96987882 86.51286598 -55.39186096 88.13320923 C-56.49636383 92.35898343 -57.62020482 96.57934724 -58.74938965 100.79858398 C-60.55753773 107.56863426 -62.33504807 114.34679762 -64.11366463 121.12465286 C-64.73326355 123.47477294 -65.36082936 125.82264491 -65.98985291 128.17025757 C-66.374159 129.62046513 -66.75832663 131.0707094 -67.14233398 132.52099609 C-67.47764633 133.77560638 -67.81295868 135.03021667 -68.15843201 136.32284546 C-69.0525837 140.22975969 -69.56734175 144.01873242 -70 148 C-68.68 148.66 -67.36 149.32 -66 150 C-62.3546989 147.28276349 -61.76856985 143.38726244 -60.73168945 139.19897461 C-60.52642639 138.4050531 -60.32116333 137.61113159 -60.10968018 136.79315186 C-59.43350702 134.16549043 -58.77289501 131.53420696 -58.11328125 128.90234375 C-57.64732033 127.06956056 -57.18077429 125.23692603 -56.71366882 123.4044342 C-55.73599783 119.55853333 -54.76612091 115.71076973 -53.80151367 111.86157227 C-52.56930493 106.94752947 -51.31708559 102.03885267 -50.05874348 97.13144588 C-49.09019738 93.3441482 -48.13297907 89.55405559 -47.17900658 85.76306343 C-46.72209883 83.95341283 -46.26162474 82.14465858 -45.79741859 80.33686638 C-42.36093297 66.91872753 -39.74016832 56.02918455 -46 43 C-47.72191784 40.13535487 -49.53630669 37.3520148 -51.3828125 34.56640625 C-55.49567141 28.03947798 -56.92856522 21.99103804 -55.5 14.3125 C-52.84725462 10.22285088 -48.32225069 8.53620398 -43.67382812 7.46289062 C-39.23333454 6.69415653 -34.80919337 6.77409481 -30.3125 6.75 C-29.36955078 6.729375 -28.42660156 6.70875 -27.45507812 6.6875 C-20.80555866 6.65093907 -15.24794613 7.76477182 -9 10 C-8.01 10.33 -7.02 10.66 -6 11 C-3.3007842 16.2634708 -3.64696449 21.39906231 -5 27 C-7.3487931 32.76792231 -10.36117267 38.09814366 -13.75 43.3125 C-18.70338844 51.06909219 -19.06172343 59.25511057 -17.20272827 68.08102417 C-16.06322472 73.08588511 -14.78825527 78.05603349 -13.51171875 83.02734375 C-13.04734621 84.86655977 -12.58372003 86.70596438 -12.12080383 88.54554749 C-11.15237509 92.38269137 -10.17558741 96.21757917 -9.19262695 100.05102539 C-7.93308982 104.96556971 -6.69382422 109.88496117 -5.46057415 114.80615902 C-4.50833258 118.59731775 -3.54597028 122.38584938 -2.58045387 126.17364693 C-2.11933436 127.98738723 -1.66126497 129.80190581 -1.20630455 131.61720085 C-0.57050878 134.14719761 0.07871049 136.67336654 0.73168945 139.19897461 C0.91726913 139.94858963 1.10284882 140.69820465 1.29405212 141.47053528 C2.23538002 145.05240457 2.95188708 147.72791232 6 150 C7.32 149.34 8.64 148.68 10 148 C9.42197891 142.68112159 8.52741129 137.70342451 7.14233398 132.52099609 C6.95687012 131.82055176 6.77140625 131.12010742 6.58032227 130.3984375 C6.1808304 128.89092531 5.77917747 127.38398441 5.37554741 125.87757492 C4.73459325 123.48042596 4.1022506 121.08115691 3.47242737 118.68106079 C1.68235429 111.86149176 -0.11446837 105.04381639 -1.93725586 98.23291016 C-3.05556274 94.0518474 -4.15672352 89.86657189 -5.24748039 85.67824173 C-5.66260727 84.0972186 -6.08388849 82.51779631 -6.51184273 80.94019699 C-12.87502749 57.45792987 -12.87502749 57.45792987 -8.375 47.75 C-7.6121523 46.48220684 -6.81785004 45.23302774 -6 44 C0.18940699 33.83515144 4.41181175 26.29386632 3 14 C0.4936728 8.60175679 -3.67264439 4.46330785 -9.140625 2.05859375 C-23.79759224 -3.10125696 -46.75203125 -4.20165986 -59 7 Z M-49.72265625 16.37890625 C-51.37392335 18.130573 -51.37392335 18.130573 -51 21.625 C-49.97782134 27.64816025 -46.62874475 32.43313021 -43.40625 37.51171875 C-37.85385669 46.39826981 -36.7793927 53.60809734 -36 64 C-32.04 64 -28.08 64 -24 64 C-23.92523438 62.98421875 -23.85046875 61.9684375 -23.7734375 60.921875 C-22.68154808 48.70701377 -18.63896461 40.03873829 -12.0390625 29.734375 C-9.85211722 26.08398513 -9 23.04797972 -9 18.8125 C-9.76850664 15.75657024 -9.76850664 15.75657024 -12.75 14.1875 C-23.06764237 10.41759221 -40.6889095 9.14781191 -49.72265625 16.37890625 Z " fill="#000000" transform="translate(130,21)"/>
</svg>
